<?xml version="1.0" encoding="UTF-8" standalone="no"?>
<!-- Created with Inkscape (http://www.inkscape.org/) -->

<svg
   width="24"
   height="24"
   viewBox="0 0 24 24"
   version="1.1"
   id="svg8903"
   xml:space="preserve"
   inkscape:version="1.2.2 (b0a8486541, 2022-12-01)"
   sodipodi:docname="slon-icon-filled.svg"
   xmlns:inkscape="http://www.inkscape.org/namespaces/inkscape"
   xmlns:sodipodi="http://sodipodi.sourceforge.net/DTD/sodipodi-0.dtd"
   xmlns="http://www.w3.org/2000/svg"
   xmlns:svg="http://www.w3.org/2000/svg"><sodipodi:namedview
     id="namedview8905"
     pagecolor="#505050"
     bordercolor="#ffffff"
     borderopacity="1"
     inkscape:showpageshadow="0"
     inkscape:pageopacity="0"
     inkscape:pagecheckerboard="1"
     inkscape:deskcolor="#505050"
     inkscape:document-units="mm"
     showgrid="false"
     inkscape:zoom="22.627417"
     inkscape:cx="3.049398"
     inkscape:cy="12.772116"
     inkscape:window-width="1920"
     inkscape:window-height="1007"
     inkscape:window-x="0"
     inkscape:window-y="486"
     inkscape:window-maximized="1"
     inkscape:current-layer="layer1" /><defs
     id="defs8900" /><g
     inkscape:label="Layer 1"
     inkscape:groupmode="layer"
     id="layer1"><path
       style="fill:#604c07;fill-opacity:1;stroke:none;stroke-width:0.107707"
       d="m 6.4072195,15.412831 c -0.5667674,0.555656 -2.4412175,1.617373 -2.4412175,2.462748 0,0.540273 0.6273665,0.631609 1.0403671,0.650219 1.1163886,0.05024 2.1418763,-0.127589 3.234003,-0.315856 -0.6978944,1.396509 -2.7579251,2.069429 -2.9118018,3.657758 -0.2268788,2.343763 2.3187227,2.388302 3.8822937,1.85233 2.747891,-0.941763 5.157405,-3.072732 6.146444,-5.832831 1.138927,0.572115 2.298126,0.676576 3.558037,0.641718 0.456134,-0.01262 1.242557,-0.100265 1.140115,-0.747793 -0.135221,-0.854304 -1.83132,-1.783805 -2.43367,-2.368293 0.89943,0.140288 1.89634,0.428494 2.803645,0.22291 3.571409,-0.808906 3.558469,-5.376371 3.558469,-8.1839163 0,-1.5449725 0.244563,-3.3819083 -0.679234,-4.7302341 C 22.361243,1.3446684 20.633443,1.2210155 19.131445,1.5988623 18.615683,1.7285934 17.985077,2.1105514 17.445375,2.0323813 16.758269,1.9328484 16.083022,1.1407718 15.465143,0.82036208 14.316619,0.22483504 13.083229,0.01364365 11.798838,0.03136368 10.583137,0.04810405 9.4111084,0.34185314 8.3482031,0.93628964 7.7979338,1.2440063 7.2063667,1.9403664 6.5739299,2.0323813 6.0087806,2.1146055 5.3350423,1.6995058 4.7897328,1.572624 3.2632577,1.2174211 1.5543728,1.3968154 0.65514598,2.8275888 -0.18809081,4.1692664 0.0451044,5.9432152 0.0451044,7.4518247 c 0,2.7982943 0.0046955,7.5345543 3.6663057,8.2059663 0.8684807,0.15933 1.8401586,-0.08983 2.6958094,-0.244961 M 11.044013,0.93626071 c 4.285154,-0.52114665 7.861952,2.91536059 7.759513,7.16105069 -0.05823,2.4090666 -1.759715,3.7474836 -2.861119,5.7018026 -0.747599,1.32669 -0.914204,2.824436 -1.541787,4.195665 -1.1537,2.520627 -3.888219,5.04663 -6.8070265,5.211876 C 6.6638611,23.259369 5.8998697,22.34848 6.3865154,21.463087 6.7037583,20.885809 7.4246168,20.615455 7.9027491,20.192984 8.7437315,19.449704 9.1348426,18.458668 9.085561,17.349292 8.9561622,14.432012 7.0780438,12.996881 5.8523119,10.571679 4.8185227,8.5262399 5.0497168,6.0184125 6.2821324,4.1168097 6.7541187,3.3884847 7.3339317,2.7169833 8.0254599,2.1881923 8.9032166,1.5168616 9.9442318,1.0700137 11.044013,0.93626071 M 6.0837218,2.9334155 C 4.4942714,5.4066004 3.6929683,8.1106521 5.1097782,10.894423 5.7029672,12.059955 6.702465,12.94438 7.2698802,14.121858 6.679389,14.393393 6.0778982,14.596505 5.4367275,14.711831 1.111592,15.490074 0.90776538,10.456028 0.90776538,7.4518244 c 0,-1.4537422 -0.33796867,-3.5793321 0.89863152,-4.6518853 1.1584895,-1.004772 3.0478194,-0.4007385 4.2773249,0.1334755 M 16.759133,14.121856 c 0.567305,-1.177368 1.564969,-2.063191 2.16053,-3.227434 1.421443,-2.7791438 0.613456,-5.4902988 -0.974376,-7.9610076 1.229507,-0.5342149 3.118838,-1.1382483 4.27728,-0.1334753 1.236627,1.0725532 0.898676,3.1981431 0.898676,4.6518853 0,3.0070016 -0.19992,8.0388966 -4.528962,7.2600066 -0.64117,-0.115326 -1.242661,-0.318438 -1.833148,-0.589973 m -8.8422581,1.075816 0.3234989,1.936461 C 7.2619002,17.60395 6.2910824,17.671296 5.2210613,17.672048 L 7.9168749,15.19768 m 8.3030941,0 2.587979,2.366788 v 0.107581 c -1.115097,-8.15e-4 -2.085805,-0.120601 -3.127142,-0.537908 z"
       id="path9399"
       sodipodi:nodetypes="cscccccscccsccccccsccsccccccccccccccccccsccccccsccccccccccc" /><path
       style="fill:#d4af37;fill-opacity:1;fill-rule:evenodd;stroke:none;stroke-width:0.02645669;stroke-linecap:square;stroke-linejoin:bevel;stroke-dasharray:none"
       d="M 7.2616149,23.168985 C 6.6204512,23.035039 6.161825,22.430133 6.2673367,21.857579 6.3449869,21.436214 6.6469538,21.079776 7.288359,20.652376 8.1109704,20.10423 8.4470032,19.741994 8.7747856,19.050038 9.1025989,18.358018 9.179761,17.474602 9.0000616,16.470898 8.8093756,15.405828 8.4058555,14.519709 7.4887221,13.152039 7.3061977,12.87985 7.0165688,12.447947 6.8451024,12.192255 5.6344706,10.386948 5.2188249,9.2632277 5.2188249,7.7955259 5.2188249,5.980867 5.9373376,4.2745545 7.2872063,2.8835674 7.8647502,2.2884309 8.4421317,1.8644665 9.1329437,1.5282641 10.033932,1.0897737 10.866252,0.90574465 11.937312,0.90820751 c 3.449041,0.007931 6.334669,2.60339039 6.793325,6.11021229 0.05507,0.421041 0.06276,1.3106155 0.01416,1.6364483 -0.103334,0.692694 -0.348229,1.3676609 -0.736076,2.0287389 -0.230428,0.392761 -0.435187,0.696172 -1.053071,1.560438 -1.181503,1.65263 -1.330435,1.95817 -1.962566,4.026297 -0.386255,1.263698 -0.608588,1.806844 -1.029162,2.514174 -1.482795,2.493799 -4.018086,4.262771 -6.3006434,4.396207 -0.1484666,0.0087 -0.3292135,0.0034 -0.4016597,-0.01174 z M 9.8999987,10.065374 C 10.19476,9.9758991 10.231602,9.6720342 9.9820606,9.3885401 9.7605331,9.1368716 9.3216207,8.9899455 8.8840537,9.0209822 8.6221602,9.0395582 8.4520889,9.1036768 8.1867269,9.2838808 7.897317,9.4804151 7.7728841,9.703627 7.8462101,9.8947115 c 0.029305,0.076368 0.2141265,0.1732075 0.38111,0.1996885 0.2145594,0.03402 1.5407809,0.01101 1.6726786,-0.02903 z m 6.0599873,-0.0092 c 0.381005,-0.1653181 0.217138,-0.6806084 -0.29032,-0.9129301 -0.215761,-0.098779 -0.467468,-0.1396866 -0.745369,-0.1211382 -0.199501,0.013315 -0.277164,0.035597 -0.487688,0.1399155 -0.279387,0.1384416 -0.556409,0.3833929 -0.59136,0.5228984 -0.02976,0.1187642 0.02795,0.2444846 0.145583,0.3171874 0.13137,0.08119 0.38357,0.111216 0.97635,0.110237 0.06554,-1.08e-4 0.13524,-5.95e-4 0.209401,-0.0014 0.534472,-0.006 0.697428,-0.01743 0.783403,-0.05474 z"
       id="path14983"
       sodipodi:nodetypes="sssssssssssscsssscsscssssccccssscssccc" /><path
       style="fill:#d4af37;fill-opacity:1;fill-rule:evenodd;stroke:none;stroke-width:0.000584616;stroke-linecap:square;stroke-linejoin:bevel;stroke-dasharray:none"
       d="M 4.0106213,14.737535 C 3.39127,14.632885 2.8928081,14.375803 2.4520072,13.933681 1.5465091,13.025468 1.0649078,11.436 0.95181248,8.9824658 0.89398778,7.7279941 0.8769285,5.1074665 0.9242654,4.7508737 1.1021963,3.4105054 1.695986,2.6118863 2.7068783,2.3533435 3.4703747,2.158074 4.4718827,2.3038083 5.7033346,2.7893722 L 6.0702229,2.934037 5.9109922,3.1905913 C 5.2437382,4.2656781 4.7675731,5.376569 4.5414271,6.3857808 4.4116306,6.9650175 4.3879834,7.1952921 4.3870938,7.88866 c -8.618e-4,0.6719598 0.011605,0.8180686 0.1112409,1.3037281 0.1348817,0.6574584 0.414234,1.3948389 0.7450497,1.9666409 0.1751382,0.302719 0.3873858,0.605929 0.9203174,1.314734 0.2969963,0.395009 0.6120387,0.828566 0.7000944,0.963461 0.142292,0.217981 0.3840483,0.643973 0.3840483,0.676721 0,0.01805 -0.5005238,0.220465 -0.7996752,0.323395 -0.3561918,0.122557 -0.8226912,0.236739 -1.1838347,0.28976 -0.3583319,0.05261 -0.9738051,0.05773 -1.2537133,0.01043 z"
       id="path15056" /><path
       style="fill:#d4af37;fill-opacity:1;fill-rule:evenodd;stroke:none;stroke-width:0.000584616;stroke-linecap:square;stroke-linejoin:bevel;stroke-dasharray:none"
       d="m 18.88256,14.74657 c -0.579832,-0.0743 -1.35032,-0.295155 -1.94933,-0.558772 l -0.158867,-0.06992 0.122589,-0.230941 c 0.165752,-0.312254 0.390749,-0.64874 0.764338,-1.143076 0.648724,-0.858399 0.73255,-0.972428 0.892618,-1.214238 C 19.768939,9.6941144 19.988248,7.5410872 19.18307,5.3529395 18.915209,4.6249996 18.528467,3.841976 18.100411,3.1609143 18.025897,3.0423586 17.964932,2.9422296 17.964932,2.9384054 c 0,-0.00382 0.151641,-0.066862 0.33698,-0.1400833 0.929337,-0.3671513 1.609664,-0.5206594 2.303622,-0.5197859 0.441692,5.56e-4 0.714221,0.048399 1.040158,0.1826034 0.726697,0.2992168 1.216286,0.9741086 1.398501,1.9278155 0.108422,0.5674774 0.118835,0.999507 0.07535,3.1263883 -0.03402,1.6641144 -0.07115,2.2830134 -0.184763,3.0802096 -0.16565,1.162291 -0.483432,2.136884 -0.909532,2.789408 -0.51091,0.7824 -1.209473,1.239944 -2.082629,1.364076 -0.186533,0.02652 -0.845818,0.02498 -1.060061,-0.0025 z"
       id="path15127" /><path
       style="fill:#d4af37;fill-opacity:1;fill-rule:evenodd;stroke:none;stroke-width:0.000584616;stroke-linecap:square;stroke-linejoin:bevel;stroke-dasharray:none"
       d="m 18.108563,17.642539 c -0.784042,-0.04443 -1.494637,-0.182852 -2.172343,-0.423161 -0.156791,-0.0556 -0.24617,-0.09832 -0.239895,-0.114675 0.0055,-0.01433 0.126191,-0.443107 0.268201,-0.952827 0.14201,-0.509721 0.259907,-0.92811 0.261992,-0.929755 0.0021,-0.0016 0.582327,0.525321 1.289426,1.171036 0.948814,0.866447 1.286032,1.187053 1.287155,1.223746 0.0015,0.04813 -0.0047,0.04961 -0.191828,0.04644 -0.106342,-0.0018 -0.332561,-0.01117 -0.502708,-0.02081 z"
       id="path15129" /><path
       style="fill:#d4af37;fill-opacity:1;fill-rule:evenodd;stroke:none;stroke-width:0.000584616;stroke-linecap:square;stroke-linejoin:bevel;stroke-dasharray:none"
       d="m 5.2591067,17.658233 c 0,-0.0046 0.2808109,-0.265635 0.6240242,-0.580049 0.3432133,-0.314413 0.9368866,-0.858808 1.3192741,-1.209767 0.5865607,-0.538351 0.6978268,-0.631622 0.7117336,-0.596622 0.016633,0.04186 0.3059777,1.770129 0.3059777,1.827616 0,0.06721 -0.630798,0.299572 -1.0827572,0.398846 -0.1397641,0.0307 -0.3734408,0.07116 -0.5192816,0.08991 -0.3624541,0.0466 -1.3589708,0.09798 -1.3589708,0.07007 z"
       id="path15131" /><path
       style="fill:#604c07;fill-opacity:1;fill-rule:evenodd;stroke:none;stroke-width:0.000584616;stroke-linecap:square;stroke-linejoin:bevel;stroke-dasharray:none"
       d="M 8.3416503,10.087331 C 8.1237342,10.070426 7.9984455,10.027665 7.9052328,9.9383827 7.8154365,9.8523727 7.8196757,9.70935 7.9162814,9.5656311 8.0696859,9.3374134 8.4566899,9.0983055 8.7537655,9.0481972 c 0.1835499,-0.03096 0.4736798,-0.016885 0.6544745,0.031749 0.4161566,0.1119472 0.71755,0.3943368 0.721765,0.6762558 0.0019,0.1260408 -0.04767,0.2053703 -0.1660145,0.265743 -0.079127,0.04037 -0.151673,0.04803 -0.6239195,0.06588 -0.5890727,0.02227 -0.7057624,0.02221 -0.9984207,-4.93e-4 z"
       id="path15202" /><path
       style="fill:#604c07;fill-opacity:1;fill-rule:evenodd;stroke:none;stroke-width:0.000584616;stroke-linecap:square;stroke-linejoin:bevel;stroke-dasharray:none"
       d="m 14.450677,10.087323 c -0.290844,-0.01926 -0.439394,-0.06647 -0.528482,-0.1679335 -0.119044,-0.1355832 -0.08743,-0.2757831 0.102001,-0.4524007 0.22577,-0.2104941 0.542738,-0.3810393 0.782472,-0.4210103 0.175435,-0.02925 0.499118,-0.010799 0.661293,0.037696 0.199429,0.059635 0.377349,0.1617745 0.499189,0.2865707 0.247712,0.2537222 0.246859,0.5376964 -0.002,0.6674488 -0.111048,0.0579 -0.966412,0.08593 -1.514468,0.04963 z"
       id="path15204" /></g></svg>
